<?xml version="1.0" encoding="UTF-8" standalone="no"?>
<svg
   xmlns:dc="http://purl.org/dc/elements/1.1/"
   xmlns:cc="http://creativecommons.org/ns#"
   xmlns:rdf="http://www.w3.org/1999/02/22-rdf-syntax-ns#"
   xmlns:svg="http://www.w3.org/2000/svg"
   xmlns="http://www.w3.org/2000/svg"
   xmlns:sodipodi="http://sodipodi.sourceforge.net/DTD/sodipodi-0.dtd"
   xmlns:inkscape="http://www.inkscape.org/namespaces/inkscape"
   width="1000"
   height="1000"
   id="svg2"
   version="1.1"
   inkscape:version="0.91 r13725"
   sodipodi:docname="aligntop.svg">
  <metadata
     id="metadata10">
    <rdf:RDF>
      <cc:Work
         rdf:about="">
        <dc:format>image/svg+xml</dc:format>
        <dc:type
           rdf:resource="http://purl.org/dc/dcmitype/StillImage" />
        <dc:title></dc:title>
      </cc:Work>
    </rdf:RDF>
  </metadata>
  <defs
     id="defs8" />
  <sodipodi:namedview
     pagecolor="#ffffff"
     bordercolor="#666666"
     borderopacity="1"
     objecttolerance="10"
     gridtolerance="10"
     guidetolerance="10"
     inkscape:pageopacity="0"
     inkscape:pageshadow="2"
     inkscape:window-width="1386"
     inkscape:window-height="783"
     id="namedview6"
     showgrid="false"
     inkscape:zoom="0.472"
     inkscape:cx="357.45257"
     inkscape:cy="491.60552"
     inkscape:window-x="1658"
     inkscape:window-y="43"
     inkscape:window-maximized="0"
     inkscape:current-layer="svg2" />
  <rect
     id="svg_5"
     height="50"
     width="900"
     y="100"
     x="50"
     stroke-linecap="null"
     stroke-linejoin="null"
     stroke-width="null"
     style="fill:#000000;stroke-dasharray:none" />
  <path
     d="m 799.65996,220 c 4.23999,0 7.83999,1.52 10.87998,4.56 l 160.63991,174.16001 c 4.23997,4.87998 5.11996,10.15996 2.71997,15.83999 -2.71997,5.76001 -7.11997,8.63999 -13.11996,8.63999 l -101.59992,0 0,326.32 c 0,4.23999 -1.36002,7.68003 -4.08003,10.40002 -2.71997,2.72 -6.23999,4.07999 -10.39999,4.07999 l -87.11991,0 C 753.33998,764 749.9,762.63999 747.18002,759.91999 744.46,757.2 743.1,753.68 743.1,749.51999 l 0,-326.24002 -101.59992,0 c -6.31997,0 -10.71997,-2.87998 -13.11997,-8.63999 -2.40001,-5.76001 -1.68002,-11.03999 2.23994,-15.83999 L 789.41992,224.56 c 2.88004,-3.04 6.32003,-4.56 10.24004,-4.56 z"
     id="svg_3-3"
     inkscape:connector-curvature="0"
     style="fill:#000000" />
  <ellipse
     style="fill:#000000;fill-rule:evenodd;stroke:#000000;stroke-width:1.09940934px;stroke-linecap:butt;stroke-linejoin:miter;stroke-opacity:0"
     id="path3446-3-6-5-3"
     cx="-340"
     cy="159.99998"
     transform="matrix(0,-1,1,0,0,0)"
     rx="109.4503"
     ry="109.45029" />
  <ellipse
     style="fill:#000000;fill-rule:evenodd;stroke:#000000;stroke-width:1.09940934px;stroke-linecap:butt;stroke-linejoin:miter;stroke-opacity:0"
     id="path3446-3-6-5-3-6"
     cx="-340"
     cy="450"
     transform="matrix(0,-1,1,0,0,0)"
     rx="109.4503"
     ry="109.45029" />
</svg>
