<?xml version="1.0" encoding="UTF-8" standalone="no"?>
<svg
   xmlns:dc="http://purl.org/dc/elements/1.1/"
   xmlns:cc="http://creativecommons.org/ns#"
   xmlns:rdf="http://www.w3.org/1999/02/22-rdf-syntax-ns#"
   xmlns:svg="http://www.w3.org/2000/svg"
   xmlns="http://www.w3.org/2000/svg"
   xmlns:sodipodi="http://sodipodi.sourceforge.net/DTD/sodipodi-0.dtd"
   xmlns:inkscape="http://www.inkscape.org/namespaces/inkscape"
   width="1000"
   height="1000"
   id="svg2"
   version="1.1"
   inkscape:version="0.91 r13725"
   sodipodi:docname="alignleft.svg">
  <metadata
     id="metadata10">
    <rdf:RDF>
      <cc:Work
         rdf:about="">
        <dc:format>image/svg+xml</dc:format>
        <dc:type
           rdf:resource="http://purl.org/dc/dcmitype/StillImage" />
        <dc:title />
      </cc:Work>
    </rdf:RDF>
  </metadata>
  <defs
     id="defs8" />
  <sodipodi:namedview
     pagecolor="#ffffff"
     bordercolor="#666666"
     borderopacity="1"
     objecttolerance="10"
     gridtolerance="10"
     guidetolerance="10"
     inkscape:pageopacity="0"
     inkscape:pageshadow="2"
     inkscape:window-width="1174"
     inkscape:window-height="783"
     id="namedview6"
     showgrid="false"
     inkscape:zoom="0.472"
     inkscape:cx="515.66858"
     inkscape:cy="491.60552"
     inkscape:window-x="1885"
     inkscape:window-y="161"
     inkscape:window-maximized="0"
     inkscape:current-layer="svg2"
     showguides="false" />
  <path
     d="m 220,802.33991 c 0,-4.24 1.52002,-7.84 4.56001,-10.87999 L 398.72002,630.81988 c 4.87998,-4.23998 10.15996,-5.11997 15.83999,-2.71997 5.76001,2.71997 8.63999,7.11997 8.63999,13.11997 l 0,101.6 326.32002,0 c 4.23999,0 7.68003,1.36002 10.40002,4.08003 2.72,2.71997 4.07999,6.24 4.07999,10.4 l 0,87.11998 c 0,4.24003 -1.36001,7.68002 -4.08001,10.4 -2.71999,2.72002 -6.23999,4.08002 -10.4,4.08002 l -326.24004,0 0,101.6 c 0,6.31998 -2.87998,10.71998 -8.63999,13.11998 -5.76001,2.40002 -11.03999,1.68002 -15.83999,-2.23994 l -174.23999,-158.8 C 221.52002,809.69991 220,806.25992 220,802.33991 Z"
     id="svg_3"
     inkscape:connector-curvature="0"
     style="fill:#000000" />
  <rect
     id="svg_5"
     height="900"
     width="50"
     y="50"
     x="100"
     stroke-linecap="null"
     stroke-linejoin="null"
     stroke-width="null"
     style="fill:#000000;stroke-dasharray:none" />
  <ellipse
     style="fill:#000000;fill-rule:evenodd;stroke:#000000;stroke-width:1.09940934px;stroke-linecap:butt;stroke-linejoin:miter;stroke-opacity:0"
     id="path3446-3-6-5-3"
     cx="-165"
     cy="340"
     transform="matrix(0,-1,1,0,0,0)"
     rx="109.4503"
     ry="109.45029" />
  <ellipse
     style="fill:#000000;fill-rule:evenodd;stroke:#000000;stroke-width:1.09940934px;stroke-linecap:butt;stroke-linejoin:miter;stroke-opacity:0"
     id="path3446-3-6-5-3-2"
     cx="-455"
     cy="340"
     transform="matrix(0,-1,1,0,0,0)"
     rx="109.45029"
     ry="109.4503" />
</svg>
