<?xml version="1.0" encoding="iso-8859-1"?>
<!-- Generator: Adobe Illustrator 16.0.0, SVG Export Plug-In . SVG Version: 6.00 Build 0)  -->
<!DOCTYPE svg PUBLIC "-//W3C//DTD SVG 1.1//EN" "http://www.w3.org/Graphics/SVG/1.1/DTD/svg11.dtd">
<svg version="1.1" id="Capa_1" xmlns="http://www.w3.org/2000/svg" xmlns:xlink="http://www.w3.org/1999/xlink" x="0px" y="0px"
	 width="538.501px" height="538.501px" viewBox="0 0 538.501 538.501" style="enable-background:new 0 0 538.501 538.501;"
	 xml:space="preserve">
<g>
	<path d="M474.499,207.175c-26.694,0-49.032,18.794-54.638,43.848l-64.912-1.857c-2.242-15.805-10.218-30.67-23.378-40.998
		l37.857-83.725c4.904,1.238,9.972,2.079,15.25,2.079c34.88,0,63.255-28.387,63.255-63.267S419.57,0,384.702,0
		c-34.892,0-63.267,28.375-63.267,63.255c0,21.054,10.439,39.615,26.309,51.105l-37.413,82.744
		c-27.64-8.069-58.176,3.556-72.807,29.8c-4.688,8.39-7.047,17.399-7.654,26.402h-96.494c-5.074-29.847-30.938-52.71-62.216-52.71
		c-34.879,0-63.255,28.375-63.255,63.255c0,34.873,28.375,63.249,63.255,63.249c30.291,0,55.624-21.416,61.795-49.885h99.903
		c2.441,7.45,6.242,14.433,11.274,20.587l-91.438,131.846c-5.786-2.043-11.91-3.362-18.379-3.362
		c-30.933,0-56.091,25.176-56.091,56.108s25.159,56.108,56.091,56.108c30.938,0,56.108-25.176,56.108-56.108
		c0-15.822-6.662-30.104-17.259-40.321l89.47-129.009c14.053,7.59,29.654,9.189,44.122,5.851l54.217,90.93
		c-17.785,11.222-29.719,30.897-29.719,53.446c0,34.879,28.375,63.254,63.255,63.254s63.255-28.375,63.255-63.254
		c0-34.88-28.375-63.268-63.255-63.268c-3.736,0-7.345,0.479-10.906,1.098l-54.848-91.98c7.591-5.289,14.258-12.179,19.069-20.808
		c2.744-4.916,4.507-10.065,5.814-15.273l66.022,1.892c5.372,25.351,27.909,44.443,54.836,44.443
		c30.921,0,56.097-25.176,56.097-56.103C530.596,232.357,505.443,207.175,474.499,207.175z M345.351,63.255
		c0-21.69,17.655-39.34,39.352-39.34c21.685,0,39.329,17.65,39.329,39.34c0,21.69-17.645,39.352-39.329,39.352
		C363.006,102.607,345.351,84.945,345.351,63.255z M71.16,303.184c-21.69,0-39.34-17.644-39.34-39.334s17.649-39.34,39.34-39.34
		c21.702,0,39.363,17.65,39.363,39.34S92.862,303.184,71.16,303.184z M134.316,514.598c-17.744,0-32.176-14.444-32.176-32.193
		c0-17.75,14.433-32.182,32.176-32.182c17.749,0,32.194,14.432,32.194,32.182C166.51,500.154,152.077,514.598,134.316,514.598z
		 M394.522,423.95c21.685,0,39.341,17.655,39.341,39.352c0,21.695-17.656,39.34-39.341,39.34s-39.34-17.645-39.34-39.34
		C355.183,441.605,372.838,423.95,394.522,423.95z M474.499,295.478c-17.737,0-32.171-14.444-32.171-32.188
		c0-17.743,14.434-32.188,32.171-32.188c17.749,0,32.194,14.445,32.194,32.188C506.693,281.033,492.26,295.478,474.499,295.478z"/>
</g>
<g>
</g>
<g>
</g>
<g>
</g>
<g>
</g>
<g>
</g>
<g>
</g>
<g>
</g>
<g>
</g>
<g>
</g>
<g>
</g>
<g>
</g>
<g>
</g>
<g>
</g>
<g>
</g>
<g>
</g>
</svg>
