<?xml version="1.0" encoding="UTF-8" standalone="no"?>
<svg
   xmlns:dc="http://purl.org/dc/elements/1.1/"
   xmlns:cc="http://creativecommons.org/ns#"
   xmlns:rdf="http://www.w3.org/1999/02/22-rdf-syntax-ns#"
   xmlns:svg="http://www.w3.org/2000/svg"
   xmlns="http://www.w3.org/2000/svg"
   xmlns:sodipodi="http://sodipodi.sourceforge.net/DTD/sodipodi-0.dtd"
   xmlns:inkscape="http://www.inkscape.org/namespaces/inkscape"
   width="1000"
   height="1000"
   id="svg2"
   version="1.1"
   inkscape:version="0.91 r13725"
   sodipodi:docname="expand.svg">
  <metadata
     id="metadata10">
    <rdf:RDF>
      <cc:Work
         rdf:about="">
        <dc:format>image/svg+xml</dc:format>
        <dc:type
           rdf:resource="http://purl.org/dc/dcmitype/StillImage" />
        <dc:title></dc:title>
      </cc:Work>
    </rdf:RDF>
  </metadata>
  <defs
     id="defs8" />
  <sodipodi:namedview
     pagecolor="#ffffff"
     bordercolor="#666666"
     borderopacity="1"
     objecttolerance="10"
     gridtolerance="10"
     guidetolerance="10"
     inkscape:pageopacity="0"
     inkscape:pageshadow="2"
     inkscape:window-width="1409"
     inkscape:window-height="935"
     id="namedview6"
     showgrid="false"
     inkscape:zoom="0.472"
     inkscape:cx="797.48866"
     inkscape:cy="589.09364"
     inkscape:window-x="1657"
     inkscape:window-y="24"
     inkscape:window-maximized="0"
     inkscape:current-layer="svg2"
     showguides="false" />
  <ellipse
     style="fill:#000000;fill-rule:evenodd;stroke:#000000;stroke-width:1.09940934px;stroke-linecap:butt;stroke-linejoin:miter;stroke-opacity:0"
     id="path3446-3-6-5-3"
     cx="-840"
     cy="690"
     transform="matrix(0,-1,1,0,0,0)"
     rx="109.4503"
     ry="109.45029" />
  <ellipse
     style="fill:#000000;fill-rule:evenodd;stroke:#000000;stroke-width:1.09940934px;stroke-linecap:butt;stroke-linejoin:miter;stroke-opacity:0"
     id="path3446-3-6-5-3-2"
     cx="-840"
     cy="310"
     transform="matrix(0,-1,1,0,0,0)"
     rx="109.45029"
     ry="109.4503" />
  <ellipse
     style="fill:#000000;fill-rule:evenodd;stroke:#000000;stroke-width:1.09940934px;stroke-linecap:butt;stroke-linejoin:miter;stroke-opacity:0"
     id="path3446-3-6-5-3-9"
     cx="-160"
     cy="500"
     transform="matrix(0,-1,1,0,0,0)"
     rx="109.4503"
     ry="109.45029" />
  <path
     d="m 499.55319,690 c -4.24,0 -7.84,-1.52001 -10.87999,-4.56 L 328.03316,511.27996 c -4.23998,-4.87998 -5.11998,-10.15996 -2.71997,-15.83999 2.71997,-5.76001 7.11997,-8.63999 13.11997,-8.63999 l 101.6,0 0,-126.32003 c 0,-4.24 1.36002,-7.68001 4.08003,-10.4 2.71997,-2.72 6.24,-4.08 10.4,-4.08 l 87.11998,0 c 4.24003,0 7.68002,1.36 10.4,4.07999 2.72002,2.72 4.08002,6.24 4.08002,10.40001 l 0,126.24005 101.6,0 c 6.31998,0 10.71998,2.87999 13.11998,8.63999 2.40002,5.76001 1.68003,11.03999 -2.23994,15.83999 l -158.8,174.24002 c -2.88004,3.04 -6.32003,4.56 -10.24004,4.56 z"
     id="svg_3-0"
     inkscape:connector-curvature="0"
     style="fill:#000000"
     sodipodi:nodetypes="scccscsssssscssccs" />
</svg>
