<?xml version="1.0" encoding="UTF-8" standalone="no"?>
<svg
   xmlns:dc="http://purl.org/dc/elements/1.1/"
   xmlns:cc="http://creativecommons.org/ns#"
   xmlns:rdf="http://www.w3.org/1999/02/22-rdf-syntax-ns#"
   xmlns:svg="http://www.w3.org/2000/svg"
   xmlns="http://www.w3.org/2000/svg"
   xmlns:sodipodi="http://sodipodi.sourceforge.net/DTD/sodipodi-0.dtd"
   xmlns:inkscape="http://www.inkscape.org/namespaces/inkscape"
   width="1000"
   height="1000"
   id="svg2"
   version="1.1"
   inkscape:version="0.91 r13725"
   sodipodi:docname="hide.svg">
  <metadata
     id="metadata10">
    <rdf:RDF>
      <cc:Work
         rdf:about="">
        <dc:format>image/svg+xml</dc:format>
        <dc:type
           rdf:resource="http://purl.org/dc/dcmitype/StillImage" />
        <dc:title></dc:title>
      </cc:Work>
    </rdf:RDF>
  </metadata>
  <defs
     id="defs8" />
  <sodipodi:namedview
     pagecolor="#ffffff"
     bordercolor="#666666"
     borderopacity="1"
     objecttolerance="10"
     gridtolerance="10"
     guidetolerance="10"
     inkscape:pageopacity="0"
     inkscape:pageshadow="2"
     inkscape:window-width="1409"
     inkscape:window-height="935"
     id="namedview6"
     showgrid="false"
     inkscape:zoom="0.472"
     inkscape:cx="430.96324"
     inkscape:cy="589.09364"
     inkscape:window-x="1651"
     inkscape:window-y="74"
     inkscape:window-maximized="0"
     inkscape:current-layer="svg2"
     showguides="false" />
  <path
     style="color:#000000;font-style:normal;font-variant:normal;font-weight:normal;font-stretch:normal;font-size:medium;line-height:normal;font-family:sans-serif;text-indent:0;text-align:start;text-decoration:none;text-decoration-line:none;text-decoration-style:solid;text-decoration-color:#000000;letter-spacing:normal;word-spacing:normal;text-transform:none;direction:ltr;block-progression:tb;writing-mode:lr-tb;baseline-shift:baseline;text-anchor:start;white-space:normal;clip-rule:nonzero;display:inline;overflow:visible;visibility:visible;opacity:1;isolation:auto;mix-blend-mode:normal;color-interpolation:sRGB;color-interpolation-filters:linearRGB;solid-color:#000000;solid-opacity:1;fill:#000000;fill-opacity:1;fill-rule:nonzero;stroke:none;stroke-width:50;stroke-linecap:butt;stroke-linejoin:miter;stroke-miterlimit:4;stroke-dasharray:100, 100;stroke-dashoffset:0;stroke-opacity:1;color-rendering:auto;image-rendering:auto;shape-rendering:auto;text-rendering:auto;enable-background:accumulate"
     d="m 499.68359,293.21875 -4.6914,0.0586 -0.31641,0.004 -0.3164,0.0137 -4.66407,0.17578 -0.31445,0.0117 -0.31641,0.0215 -4.63281,0.29297 -0.31445,0.0195 -0.31446,0.0293 -4.59961,0.40821 -0.31445,0.0273 -0.31445,0.0352 -4.56641,0.52343 -0.3125,0.0352 -0.3125,0.043 -4.53125,0.63476 -0.31054,0.043 -0.31055,0.0527 -4.49609,0.74414 -0.3086,0.0508 -0.30859,0.0586 -4.45703,0.85547 -0.3086,0.0586 -0.30468,0.0664 -4.41797,0.96094 -0.30469,0.0664 -0.30469,0.0742 -4.37695,1.06836 -0.30274,0.0742 -0.30078,0.082 -4.33398,1.17188 -0.30078,0.082 -0.29688,0.0879 -4.29297,1.27734 -0.29687,0.0879 -0.29492,0.0957 -1.76368,0.57226 15.44141,47.55664 1.50586,-0.48828 3.65039,-1.08593 3.77734,-1.02149 3.73438,-0.91211 3.82226,-0.83203 3.78711,-0.72461 3.88868,-0.64453 3.91015,-0.54883 4.01563,-0.45898 3.88672,-0.34375 3.99218,-0.25391 4.08594,-0.15625 4.04297,-0.0508 4.04297,0.0508 4.08594,0.15625 3.99218,0.25391 3.88672,0.34375 4.01563,0.45898 3.91015,0.54883 3.88868,0.64453 3.78711,0.72461 3.8125,0.83008 1.51562,0.37109 11.85352,-48.57617 -1.81055,-0.44141 -0.30469,-0.0742 -0.30469,-0.0664 -4.41797,-0.96094 -0.30468,-0.0664 -0.3086,-0.0586 -4.45703,-0.85547 -0.30859,-0.0586 -0.3086,-0.0508 -4.49609,-0.74414 -0.31055,-0.0527 -0.31054,-0.043 -4.53125,-0.63476 -0.3125,-0.043 -0.3125,-0.0352 -4.56641,-0.52343 -0.31445,-0.0352 -0.31445,-0.0273 -4.59961,-0.40821 -0.31446,-0.0293 -0.31445,-0.0195 -4.63281,-0.29297 -0.31641,-0.0215 -0.31445,-0.0117 -4.66407,-0.17578 -0.3164,-0.0137 -0.31641,-0.004 -4.6914,-0.0586 -0.31641,-0.004 z m 111.30469,96.05078 2.53125,2.5918 2.55469,2.74609 2.48437,2.79883 2.45703,2.91016 2.35352,2.92187 2.27734,2.96875 2.21485,3.03906 2.16797,3.125 2.0664,3.14258 2.01563,3.23047 1.91601,3.23828 1.85743,3.32227 1.73828,3.29492 1.72265,3.4668 1.5918,3.41211 1.53906,3.51757 1.45117,3.55274 1.33204,3.50195 1.27929,3.62891 1.20313,3.70898 1.09375,3.66992 1.01953,3.77344 0.77148,3.16211 48.57422,-11.85352 -0.85351,-3.49804 -0.0742,-0.30274 -0.082,-0.30078 -1.17188,-4.33398 -0.082,-0.30078 -0.0879,-0.29688 -1.27734,-4.29297 -0.0879,-0.29687 -0.0957,-0.29492 -1.3789,-4.2461 -0.0957,-0.29297 -0.10156,-0.29297 -1.48047,-4.19921 -0.10156,-0.29102 -0.10938,-0.28711 -1.57812,-4.15234 -0.10938,-0.28711 -0.11718,-0.28516 -1.67579,-4.10156 -0.11523,-0.28516 -0.12305,-0.27929 -1.77343,-4.05274 -0.12305,-0.2793 -0.12891,-0.27734 -1.86718,-4 -0.12891,-0.27734 -0.13477,-0.27149 -1.96093,-3.94726 -0.13672,-0.27149 -0.14063,-0.26953 -2.05469,-3.89062 -0.14062,-0.26758 -0.14844,-0.26563 -2.14258,-3.83593 -0.14843,-0.26368 -0.1543,-0.25976 -2.23242,-3.77735 -0.1543,-0.25976 -0.1582,-0.25586 -2.32227,-3.7168 -0.1582,-0.25586 -0.16602,-0.25195 -2.4082,-3.65625 -0.16406,-0.25195 -0.17188,-0.2461 -2.49218,-3.5957 -0.16993,-0.24609 -0.17773,-0.24219 -2.57617,-3.5332 -0.17578,-0.24024 -0.18164,-0.23828 -2.65821,-3.4668 -0.18164,-0.23828 -0.1875,-0.23242 -2.73828,-3.40039 -0.1875,-0.23242 -0.19336,-0.22852 -2.81836,-3.33203 -0.1914,-0.22851 -0.19922,-0.22266 -2.89453,-3.26367 -0.19922,-0.22266 -0.20313,-0.21875 -2.97265,-3.1914 -0.20313,-0.21876 -0.20703,-0.21289 -2.71289,-2.77734 z m -270.35156,-21.04297 -0.19336,0.22852 -0.1875,0.23242 -2.73828,3.40039 -0.1875,0.23242 -0.18164,0.23828 -2.65821,3.4668 -0.18164,0.23828 -0.17578,0.24024 -2.57617,3.5332 -0.17773,0.24219 -0.16993,0.24609 -2.49218,3.5957 -0.17188,0.2461 -0.16406,0.25195 -2.4082,3.65625 -0.16602,0.25195 -0.1582,0.25586 -2.32227,3.7168 -0.1582,0.25586 -0.1543,0.25976 -2.23242,3.77735 -0.1543,0.25976 -0.14843,0.26368 -2.14258,3.83593 -0.14844,0.26563 -0.14062,0.26758 -2.05469,3.89062 -0.14063,0.26953 -0.13672,0.27149 -1.96093,3.94726 -0.13477,0.27149 -0.12891,0.27734 -1.86718,4 -0.13086,0.27734 -0.1211,0.2793 -1.77343,4.05274 -0.12305,0.27929 -0.11523,0.28516 -1.67579,4.10156 -0.11718,0.28516 -0.10938,0.28711 -1.57812,4.15234 -0.10938,0.28711 -0.10156,0.29102 -1.48047,4.19921 -0.10156,0.29297 -0.0957,0.29297 -1.3789,4.2461 -0.0957,0.29492 -0.0879,0.29687 -1.27734,4.29297 -0.0879,0.29688 -0.082,0.30078 -1.17188,4.33398 -0.082,0.30078 -0.0742,0.30274 -1.06836,4.37695 -0.0742,0.30469 -0.0664,0.30469 -0.96094,4.41797 -0.0664,0.30468 -0.0586,0.3086 -0.85547,4.45703 -0.0586,0.30859 -0.0508,0.3086 -0.57227,3.45312 49.32813,8.17188 0.52734,-3.1836 0.72461,-3.78516 0.83203,-3.82226 0.91211,-3.73438 1.01953,-3.77539 1.09375,-3.66992 1.20313,-3.70898 1.27929,-3.62891 1.33204,-3.50195 1.45117,-3.55274 1.53906,-3.51757 1.5918,-3.41211 1.72265,-3.4668 1.73828,-3.29492 1.85743,-3.32227 1.91601,-3.23828 2.01563,-3.23047 2.0664,-3.14258 2.16797,-3.125 2.21485,-3.03906 2.27734,-2.96875 2.35352,-2.92187 2.09765,-2.48438 -38.17969,-32.2832 z m 316.09375,135.81641 -0.15625,4.08594 -0.25391,3.99218 -0.34375,3.88672 -0.45898,4.01563 -0.54883,3.91015 -0.64453,3.88868 -0.72461,3.78711 -0.83203,3.82226 -0.91211,3.73438 -1.02149,3.77734 -1.08593,3.64844 -1.20899,3.72851 -1.27929,3.62891 -1.33204,3.50195 -1.45117,3.55274 -1.53906,3.51757 -1.5918,3.41211 -1.72265,3.4668 -1.73828,3.29492 -1.85743,3.32227 -1.91211,3.23437 -0.33593,0.53711 42.41601,26.47656 0.47852,-0.76562 0.1582,-0.25586 0.1543,-0.25976 2.23242,-3.77735 0.1543,-0.25976 0.14843,-0.26368 2.14258,-3.83593 0.14844,-0.26563 0.14062,-0.26758 2.05469,-3.89062 0.14063,-0.26953 0.13672,-0.27149 1.96093,-3.94726 0.13477,-0.27149 0.12891,-0.27734 1.86718,-4 0.12891,-0.27734 0.12305,-0.2793 1.77343,-4.05274 0.12305,-0.27929 0.11523,-0.28516 1.67579,-4.10156 0.11718,-0.28516 0.10938,-0.28711 1.57812,-4.15234 0.10938,-0.28711 0.10156,-0.29102 1.48047,-4.19921 0.10156,-0.29297 0.0957,-0.29297 1.3789,-4.2461 0.0957,-0.29492 0.0879,-0.29687 1.27734,-4.29297 0.0879,-0.29688 0.082,-0.30078 1.17188,-4.33398 0.082,-0.30078 0.0742,-0.30274 1.06836,-4.37695 0.0742,-0.30469 0.0664,-0.30469 0.96094,-4.41797 0.0664,-0.30468 0.0586,-0.3086 0.85547,-4.45703 0.0586,-0.30859 0.0508,-0.3086 0.74414,-4.49609 0.0527,-0.31055 0.043,-0.31054 0.63476,-4.53125 0.043,-0.3125 0.0352,-0.3125 0.52343,-4.56641 0.0352,-0.31445 0.0273,-0.31445 0.40821,-4.59961 0.0293,-0.31446 0.0195,-0.31445 0.29297,-4.63281 0.0215,-0.31641 0.0117,-0.31445 0.17578,-4.66407 0.0137,-0.3164 0.004,-0.31641 0.0586,-4.6914 -49.99609,-0.63282 z m -347.94336,74.76758 0.57227,1.40234 0.11523,0.28516 0.12305,0.27929 1.77343,4.05274 0.1211,0.2793 0.13086,0.27734 1.86718,4 0.12891,0.27734 0.13477,0.27149 1.96093,3.94726 0.13672,0.27149 0.14063,0.26953 2.05469,3.89062 0.14062,0.26758 0.14844,0.26563 2.14258,3.83593 0.14843,0.26368 0.1543,0.25976 2.23242,3.77735 0.1543,0.25976 0.1582,0.25586 2.32227,3.7168 0.1582,0.25586 0.16602,0.25195 2.4082,3.65625 0.16406,0.25195 0.17188,0.2461 2.49218,3.5957 0.16993,0.24609 0.17773,0.24219 2.57617,3.5332 0.17578,0.24024 0.18164,0.23828 2.65821,3.4668 0.18164,0.23828 0.1875,0.23242 2.73828,3.40039 0.1875,0.23242 0.19336,0.22852 2.81836,3.33203 0.1914,0.22851 0.19922,0.22266 2.89453,3.26367 0.19922,0.22266 0.20313,0.21875 2.97265,3.1914 0.20313,0.21876 0.20703,0.21289 3.04688,3.12109 0.20898,0.21289 0.21289,0.20898 3.12109,3.04688 0.21289,0.20703 0.21876,0.20313 3.1914,2.97265 0.21875,0.20313 0.22266,0.19922 3.26367,2.89453 0.22266,0.19922 0.22851,0.1914 3.33203,2.81836 0.22852,0.19336 0.23242,0.1875 3.40039,2.73828 0.23242,0.1875 0.23828,0.18164 3.4668,2.65821 0.23828,0.18164 0.24024,0.17578 1.76367,1.28515 29.46289,-40.39648 -1.52735,-1.11328 -2.96484,-2.27344 -2.92187,-2.35352 -2.91016,-2.45703 -2.79883,-2.48437 -2.74414,-2.55469 -2.72461,-2.6582 -2.6582,-2.72461 -2.55469,-2.74414 -2.48437,-2.79883 -2.45703,-2.91016 -2.35352,-2.92187 -2.27734,-2.96875 -2.21485,-3.03906 -2.16797,-3.125 -2.0664,-3.14258 -2.01563,-3.23047 -1.91601,-3.23828 -1.85743,-3.32227 -1.73828,-3.29492 -1.72265,-3.4668 -1.5918,-3.41211 -1.53906,-3.51367 -0.45117,-1.10742 z m 259.14844,62.53515 -3.41407,1.5918 -3.51757,1.53906 -3.55274,1.45117 -3.50195,1.33204 -3.62891,1.27929 -3.70898,1.20313 -3.66992,1.09375 -3.77539,1.01953 -3.73438,0.91211 -3.82226,0.83203 -3.78711,0.72461 -3.88868,0.64453 -3.91015,0.54883 -4.01563,0.45898 -3.88672,0.34375 -3.99218,0.25391 -4.08594,0.15625 -4.04297,0.0508 -4.04297,-0.0508 -4.08594,-0.15625 -4.0039,-0.25391 -0.0645,-0.006 0,0.002 -0.20898,-0.0137 -0.52148,8.24805 -3.69141,41.56641 0.42187,0.0371 0.31446,0.0293 0.31445,0.0195 4.63281,0.29297 0.31641,0.0215 0.31445,0.0117 4.66407,0.17578 0.3164,0.0137 0.31641,0.004 4.6914,0.0586 0.31641,0.004 0.31641,-0.004 4.6914,-0.0586 0.31641,-0.004 0.3164,-0.0137 4.66407,-0.17578 0.31445,-0.0117 0.31641,-0.0215 4.63281,-0.29297 0.31445,-0.0195 0.31446,-0.0293 4.59961,-0.40821 0.31445,-0.0273 0.31445,-0.0352 4.56641,-0.52343 0.3125,-0.0352 0.3125,-0.043 4.53125,-0.63476 0.31054,-0.043 0.31055,-0.0527 4.49609,-0.74414 0.3086,-0.0508 0.30859,-0.0586 4.45703,-0.85547 0.3086,-0.0586 0.30468,-0.0664 4.41797,-0.96094 0.30469,-0.0664 0.30469,-0.0742 4.37695,-1.06836 0.30274,-0.0742 0.30078,-0.082 4.33398,-1.17188 0.30078,-0.082 0.29688,-0.0879 4.29297,-1.27734 0.29687,-0.0879 0.29492,-0.0957 4.2461,-1.3789 0.29297,-0.0957 0.29297,-0.10156 4.19921,-1.48047 0.29102,-0.10156 0.28711,-0.10938 4.15234,-1.57812 0.28711,-0.10938 0.28516,-0.11718 4.10156,-1.67579 0.28516,-0.11523 0.27929,-0.12305 4.05274,-1.77343 0.2793,-0.1211 0.27734,-0.13086 4,-1.86718 0.27734,-0.12891 0.27149,-0.13477 3.64453,-1.8125 -22.25,-44.77539 z"
     id="path3878-3"
     inkscape:connector-curvature="0" />
</svg>
