<?xml version="1.0" standalone="no"?>
<!DOCTYPE svg PUBLIC "-//W3C//DTD SVG 20010904//EN"
 "http://www.w3.org/TR/2001/REC-SVG-20010904/DTD/svg10.dtd">
<svg version="1.0" xmlns="http://www.w3.org/2000/svg"
 width="390.000000pt" height="390.000000pt" viewBox="0 0 390.000000 390.000000"
 preserveAspectRatio="xMidYMid meet">
<metadata>
Created by potrace 1.15, written by Peter Selinger 2001-2017
</metadata>
<g transform="translate(0.000000,390.000000) scale(0.100000,-0.100000)"
fill="#000000" stroke="none">
<path d="M1680 3852 c-19 -16 -24 -33 -33 -123 -19 -200 23 -416 104 -538 49
-73 98 -115 253 -216 66 -43 140 -96 164 -119 68 -63 98 -138 86 -216 l-6 -37
-102 -6 c-115 -6 -180 -23 -284 -74 l-73 -36 -16 24 c-33 49 -93 97 -139 113
-99 34 -221 14 -460 -74 -230 -85 -294 -95 -388 -59 -89 33 -197 145 -305 317
-18 29 -43 59 -54 67 -32 22 -75 18 -102 -10 -47 -47 -30 -94 101 -271 l52
-71 -99 -13 c-136 -17 -175 -52 -144 -127 22 -51 50 -55 235 -30 l165 23 61
-28 c141 -66 236 -58 527 43 284 98 354 100 414 10 l22 -33 -35 -46 c-46 -60
-90 -153 -110 -233 -9 -35 -17 -65 -18 -66 -1 -1 -24 4 -51 12 -65 20 -94 19
-162 -6 -82 -31 -181 -135 -313 -329 -127 -188 -165 -231 -231 -259 -105 -45
-210 -35 -422 39 -62 22 -125 40 -140 40 -35 0 -77 -41 -77 -75 0 -59 34 -82
209 -140 l84 -27 -6 -62 c-22 -218 -22 -212 6 -240 26 -26 66 -33 102 -20 28
11 42 57 49 159 4 55 9 107 12 116 4 13 23 17 98 21 178 10 275 85 462 363
149 220 206 268 298 251 55 -10 81 -42 101 -120 10 -39 33 -99 51 -135 34 -69
132 -194 159 -205 12 -4 6 -14 -25 -43 -94 -84 -111 -166 -108 -511 3 -252 3
-258 -21 -309 -53 -117 -170 -183 -482 -269 -224 -62 -302 -92 -318 -122 -18
-34 -13 -71 14 -97 28 -29 66 -32 119 -10 20 9 110 35 199 60 364 98 501 169
585 302 62 98 65 120 71 448 6 276 8 303 26 334 45 76 109 94 237 67 154 -32
318 -13 450 53 57 29 58 29 58 8 0 -34 55 -121 97 -155 63 -49 160 -97 308
-152 160 -59 255 -100 255 -109 0 -4 -48 -23 -107 -42 -129 -41 -153 -58 -153
-105 0 -46 13 -69 48 -83 26 -11 46 -7 181 37 l152 50 10 -24 c18 -50 22 -167
9 -320 l-14 -157 28 -23 c58 -50 127 -17 140 67 3 24 10 88 16 143 5 54 12
102 17 106 4 4 59 24 120 45 126 41 150 56 159 101 4 24 0 37 -21 62 -34 41
-55 41 -182 -2 l-101 -34 -6 37 c-3 21 -22 70 -41 109 -63 125 -156 189 -411
283 -260 95 -322 137 -331 223 -6 45 14 125 44 176 36 63 75 156 88 213 33
140 11 328 -54 458 l-29 59 36 31 c105 91 169 216 273 532 91 274 136 369 221
461 98 107 245 165 426 166 53 0 67 4 87 25 16 15 25 36 25 55 0 19 -9 40 -25
55 -22 23 -31 25 -125 25 -163 0 -323 -44 -416 -115 l-33 -25 -11 42 c-7 24
-19 70 -27 103 -16 60 -57 115 -88 115 -34 0 -67 -22 -80 -53 -13 -31 -11 -45
29 -192 l42 -158 -51 -102 c-32 -64 -81 -190 -129 -338 -88 -271 -136 -375
-207 -448 l-50 -51 -43 36 c-24 20 -79 54 -121 77 -66 36 -76 45 -71 63 25
102 11 217 -37 293 -41 64 -127 137 -281 237 -80 52 -146 98 -146 102 0 4 29
67 65 142 71 148 79 186 42 220 -29 28 -87 29 -111 4 -9 -11 -36 -59 -60 -108
l-43 -89 -13 40 c-8 25 -14 107 -16 215 -1 96 -3 178 -3 183 -1 4 -10 16 -21
27 -25 25 -80 26 -110 2z"/>
</g>
</svg>
