<?xml version="1.0" standalone="no"?>
<!DOCTYPE svg PUBLIC "-//W3C//DTD SVG 20010904//EN"
 "http://www.w3.org/TR/2001/REC-SVG-20010904/DTD/svg10.dtd">
<svg version="1.0" xmlns="http://www.w3.org/2000/svg"
 width="260.000000pt" height="260.000000pt" viewBox="0 0 260.000000 260.000000"
 preserveAspectRatio="xMidYMid meet">
<metadata>
Created by potrace 1.15, written by Peter Selinger 2001-2017
</metadata>
<g transform="translate(0.000000,260.000000) scale(0.100000,-0.100000)"
fill="#000000" stroke="none">
<path d="M465 2350 c-196 -40 -360 -194 -410 -387 -22 -82 -21 -370 1 -444 28
-94 74 -171 143 -240 112 -112 233 -159 414 -159 94 0 97 -1 97 -22 0 -38 -27
-126 -49 -164 -25 -42 -26 -62 -5 -92 11 -17 25 -22 57 -22 105 1 274 59 374
129 68 49 96 78 127 139 16 32 18 32 87 32 145 0 275 54 380 159 121 121 159
230 159 461 0 165 -14 238 -61 332 -41 81 -145 186 -225 226 -119 60 -138 62
-615 61 -239 -1 -452 -5 -474 -9z m966 -135 c116 -37 215 -130 262 -245 20
-50 22 -72 22 -230 0 -158 -2 -180 -22 -230 -46 -113 -148 -209 -258 -245 -27
-8 -99 -18 -160 -22 -113 -6 -145 -17 -145 -53 0 -30 -58 -107 -104 -139 -50
-34 -96 -56 -164 -76 -43 -13 -44 -13 -38 8 3 12 12 64 21 115 15 85 15 96 0
118 -15 23 -20 24 -128 24 -152 1 -246 14 -312 46 -82 38 -168 123 -207 202
l-33 67 0 185 0 185 32 68 c59 125 188 219 323 236 36 4 243 7 460 6 352 -1
401 -3 451 -20z"/>
<path d="M456 1938 c-21 -30 -20 -54 4 -78 19 -19 33 -20 268 -20 274 0 292 4
292 59 0 59 -11 61 -293 61 -253 0 -256 0 -271 -22z"/>
<path d="M460 1620 c-24 -24 -25 -48 -4 -78 l15 -22 468 0 c441 0 469 1 484
18 23 25 21 58 -3 82 -19 19 -33 20 -480 20 -447 0 -461 -1 -480 -20z"/>
<path d="M284 704 c-186 -66 -241 -327 -99 -469 58 -57 116 -80 205 -79 64 0
83 4 129 29 61 33 103 80 128 142 l18 43 192 0 191 0 12 -34 c20 -61 75 -122
137 -153 147 -72 333 -4 389 143 l17 44 192 0 192 0 11 -38 c16 -53 75 -118
136 -150 69 -36 178 -38 246 -5 71 35 122 91 143 154 36 116 15 231 -57 301
-149 146 -378 107 -463 -79 l-24 -53 -187 0 -187 1 -30 61 c-89 185 -334 214
-469 56 -20 -23 -42 -59 -48 -80 l-11 -38 -191 0 -191 0 -24 56 c-57 131 -217
198 -357 148z m1113 -130 c118 -56 120 -212 3 -272 -135 -69 -290 87 -207 209
50 74 129 98 204 63z m961 -11 c49 -37 67 -71 67 -127 0 -67 -35 -117 -99
-141 -60 -23 -107 -13 -156 31 -44 40 -65 91 -56 137 8 41 52 96 90 113 41 19
120 12 154 -13z"/>
</g>
</svg>
