<svg xmlns="http://www.w3.org/2000/svg" width="29" height="29" viewBox="0 0 29 29"><g transform="rotate(45 1235.308 -511.68)"><path d="M728.24 719.018a.977 20.482 0 0 0-.724 8.5l1.637 1.636a.977 20.482 0 0 0-.844-10.186.977 20.482 0 0 0-.07.05zM748.582 707.57a.977 20.482 0 0 0-.147 10.776.977 20.482 0 0 0 .977 20.482.977 20.482 0 0 0 .977-20.48.977 20.482 0 0 0-.103-9.072l-1.705-1.706zM759.12 718.11a.977 20.482 0 0 0 .843 10.167.977 20.482 0 0 0 .793-8.532l-1.636-1.636zM753.712 712.7a.977 20.482 0 0 0 0 .37.977 20.482 0 0 0 .975 20.483.977 20.482 0 0 0 .974-18.903l-1.948-1.95zM733.515 713.742a.977 20.482 0 0 0-.904 18.87l1.95 1.95a.977 20.482 0 0 0 .002-.388.977 20.482 0 0 0-.977-20.48.977 20.482 0 0 0-.07.048zM738.79 708.467a.977 20.482 0 0 0-.908 20.43.977 20.482 0 0 0 .103 9.09l1.704 1.703a.977 20.482 0 0 0 .148-10.792.977 20.482 0 0 0-.976-20.482.977 20.482 0 0 0-.07.05z"/><ellipse ry="20.482" rx=".977" cy="723.622" cx="744.136"/></g></svg>