<?xml version="1.0" encoding="UTF-8" standalone="no"?>
<svg
   xmlns:dc="http://purl.org/dc/elements/1.1/"
   xmlns:cc="http://creativecommons.org/ns#"
   xmlns:rdf="http://www.w3.org/1999/02/22-rdf-syntax-ns#"
   xmlns:svg="http://www.w3.org/2000/svg"
   xmlns="http://www.w3.org/2000/svg"
   xmlns:sodipodi="http://sodipodi.sourceforge.net/DTD/sodipodi-0.dtd"
   xmlns:inkscape="http://www.inkscape.org/namespaces/inkscape"
   width="65"
   height="65"
   viewBox="0 0 65 65"
   id="svg3679"
   version="1.1"
   inkscape:version="0.91 r13725"
   sodipodi:docname="node_background_neuron_noncompressed.svg">
  <metadata
     id="metadata3709">
    <rdf:RDF>
      <cc:Work
         rdf:about="">
        <dc:format>image/svg+xml</dc:format>
        <dc:type
           rdf:resource="http://purl.org/dc/dcmitype/StillImage" />
        <dc:title />
      </cc:Work>
    </rdf:RDF>
  </metadata>
  <defs
     id="defs3707" />
  <sodipodi:namedview
     pagecolor="#ffffff"
     bordercolor="#666666"
     borderopacity="1"
     objecttolerance="10"
     gridtolerance="10"
     guidetolerance="10"
     inkscape:pageopacity="0"
     inkscape:pageshadow="2"
     inkscape:window-width="1920"
     inkscape:window-height="1056"
     id="namedview3705"
     showgrid="false"
     inkscape:zoom="12.996623"
     inkscape:cx="17.132426"
     inkscape:cy="29.432902"
     inkscape:window-x="1600"
     inkscape:window-y="24"
     inkscape:window-maximized="1"
     inkscape:current-layer="svg3679" />
  <ellipse
     style="opacity:1;fill:#000000"
     id="ellipse3683"
     ry="19.8899"
     rx="0.97499508"
     cy="-0.019301098"
     cx="24.948456"
     transform="matrix(0.70710678,0.70710678,-0.70710678,0.70710678,0,0)" />
  <ellipse
     style="opacity:1;fill:#000000"
     id="ellipse3685"
     ry="29.054853"
     rx="0.97499508"
     cy="0.045682702"
     cx="46.008366"
     transform="matrix(0.70710678,0.70710678,-0.70710678,0.70710678,0,0)" />
  <ellipse
     style="opacity:1;fill:#000000"
     id="ellipse3687"
     ry="12.154939"
     rx="0.97499508"
     cy="-0.019301098"
     cx="72.333229"
     transform="matrix(0.70710678,0.70710678,-0.70710678,0.70710678,0,0)" />
  <ellipse
     style="opacity:1;fill:#000000"
     id="ellipse3689"
     ry="12.154939"
     rx="0.97499508"
     cy="-0.019301098"
     cx="19.683498"
     transform="matrix(0.70710678,0.70710678,-0.70710678,0.70710678,0,0)" />
  <ellipse
     style="opacity:1;fill:#000000"
     id="ellipse3691"
     ry="24.212378"
     rx="0.97499508"
     cy="-0.019301098"
     cx="61.803276"
     transform="matrix(0.70710678,0.70710678,-0.70710678,0.70710678,0,0)" />
  <ellipse
     style="opacity:1;fill:#000000"
     id="ellipse3693"
     ry="26.909864"
     rx="0.97499508"
     cy="-0.019301098"
     cx="56.538319"
     transform="matrix(0.70710678,0.70710678,-0.70710678,0.70710678,0,0)" />
  <ellipse
     style="opacity:1;fill:#000000"
     id="ellipse3695"
     ry="28.567356"
     rx="0.97499508"
     cy="-0.019301098"
     cx="51.273323"
     transform="matrix(0.70710678,0.70710678,-0.70710678,0.70710678,0,0)" />
  <ellipse
     style="opacity:1;fill:#000000"
     id="ellipse3697"
     ry="24.212378"
     rx="0.97499508"
     cy="-0.019301098"
     cx="30.213453"
     transform="matrix(0.70710678,0.70710678,-0.70710678,0.70710678,0,0)" />
  <ellipse
     style="opacity:1;fill:#000000"
     id="ellipse3699"
     ry="26.909864"
     rx="0.97499508"
     cy="-0.019301098"
     cx="35.478409"
     transform="matrix(0.70710678,0.70710678,-0.70710678,0.70710678,0,0)" />
  <ellipse
     style="opacity:1;fill:#000000"
     id="ellipse3701"
     ry="28.567356"
     rx="0.97499508"
     cy="-0.019301098"
     cx="40.743408"
     transform="matrix(0.70710678,0.70710678,-0.70710678,0.70710678,0,0)" />
  <ellipse
     style="opacity:1;fill:#000000"
     id="ellipse3703"
     ry="19.8899"
     rx="0.97499508"
     cy="-0.019301098"
     cx="67.068275"
     transform="matrix(0.70710678,0.70710678,-0.70710678,0.70710678,0,0)" />
</svg>
