<?xml version="1.0" encoding="UTF-8" standalone="no"?>
<svg
   xmlns:dc="http://purl.org/dc/elements/1.1/"
   xmlns:cc="http://creativecommons.org/ns#"
   xmlns:rdf="http://www.w3.org/1999/02/22-rdf-syntax-ns#"
   xmlns:svg="http://www.w3.org/2000/svg"
   xmlns="http://www.w3.org/2000/svg"
   xmlns:sodipodi="http://sodipodi.sourceforge.net/DTD/sodipodi-0.dtd"
   xmlns:inkscape="http://www.inkscape.org/namespaces/inkscape"
   width="29"
   height="29"
   viewBox="0 0 29 29"
   id="svg2"
   version="1.1"
   inkscape:version="0.91 r13725"
   sodipodi:docname="node_background_muscle_noncompressed.svg">
  <metadata
     id="metadata32">
    <rdf:RDF>
      <cc:Work
         rdf:about="">
        <dc:format>image/svg+xml</dc:format>
        <dc:type
           rdf:resource="http://purl.org/dc/dcmitype/StillImage" />
        <dc:title />
      </cc:Work>
    </rdf:RDF>
  </metadata>
  <defs
     id="defs30" />
  <sodipodi:namedview
     pagecolor="#ffffff"
     bordercolor="#666666"
     borderopacity="1"
     objecttolerance="10"
     gridtolerance="10"
     guidetolerance="10"
     inkscape:pageopacity="0"
     inkscape:pageshadow="2"
     inkscape:window-width="1642"
     inkscape:window-height="815"
     id="namedview28"
     showgrid="false"
     inkscape:zoom="9.44"
     inkscape:cx="-7.9659892"
     inkscape:cy="19.622827"
     inkscape:window-x="1878"
     inkscape:window-y="112"
     inkscape:window-maximized="0"
     inkscape:current-layer="g4" />
  <g
     transform="matrix(0.70710678,0.70710678,-0.70710678,0.70710678,8.1596219e-4,-1023.362)"
     id="g4">
    <path
       style="opacity:1"
       d="M 6.5214844 0.00390625 A 0.97699874 20.482403 45 0 0 0 5.5019531 L 0 7.8164062 A 0.97699874 20.482403 45 0 0 6.6054688 0.017578125 A 0.97699874 20.482403 45 0 0 6.5214844 0.00390625 z "
       transform="matrix(0.70710678,-0.70710678,0.70710678,0.70710678,723.62563,723.62679)"
       id="ellipse3683" />
    <path
       style="opacity:1"
       d="M 29 6.2929688 A 0.97699874 20.482403 45 0 0 21.277344 13.808594 A 0.97699874 20.482403 45 0 0 7.484375 28.982422 A 0.97699874 20.482403 45 0 0 22.658203 15.191406 A 0.97699874 20.482403 45 0 0 29 8.7050781 L 29 6.2929688 z "
       transform="matrix(0.70710678,-0.70710678,0.70710678,0.70710678,723.62563,723.62679)"
       id="ellipse3685" />
    <path
       style="opacity:1"
       d="M 29 21.197266 A 0.97699874 20.482403 45 0 0 22.40625 28.982422 A 0.97699874 20.482403 45 0 0 29 23.509766 L 29 21.197266 z "
       transform="matrix(0.70710678,-0.70710678,0.70710678,0.70710678,723.62563,723.62679)"
       id="ellipse3693" />
    <path
       style="opacity:1"
       d="M 29 13.548828 A 0.97699874 20.482403 45 0 0 28.738281 13.808594 A 0.97699874 20.482403 45 0 0 14.945312 28.982422 A 0.97699874 20.482403 45 0 0 29 16.304688 L 29 13.548828 z "
       transform="matrix(0.70710678,-0.70710678,0.70710678,0.70710678,723.62563,723.62679)"
       id="ellipse3695" />
    <path
       style="opacity:1"
       d="M 13.982422 0.00390625 A 0.97699874 20.482403 45 0 0 0 12.707031 L 0 15.464844 A 0.97699874 20.482403 45 0 0 0.27539062 15.191406 A 0.97699874 20.482403 45 0 0 14.066406 0.017578125 A 0.97699874 20.482403 45 0 0 13.982422 0.00390625 z "
       transform="matrix(0.70710678,-0.70710678,0.70710678,0.70710678,723.62563,723.62679)"
       id="ellipse3697" />
    <path
       style="opacity:1"
       d="M 21.443359 0.00390625 A 0.97699874 20.482403 45 0 0 6.3535156 13.808594 A 0.97699874 20.482403 45 0 0 0 20.306641 L 0 22.716797 A 0.97699874 20.482403 45 0 0 7.7363281 15.191406 A 0.97699874 20.482403 45 0 0 21.529297 0.017578125 A 0.97699874 20.482403 45 0 0 21.443359 0.00390625 z "
       transform="matrix(0.70710678,-0.70710678,0.70710678,0.70710678,723.62563,723.62679)"
       id="ellipse3699" />
    <ellipse
       style="opacity:1"
       id="ellipse3701"
       ry="20.482403"
       rx="0.97699875"
       cy="723.62238"
       cx="744.13599" />
  </g>
</svg>
